<svg width="100" height="100" viewBox="0 0 100 100" fill="none" xmlns="http://www.w3.org/2000/svg">
<path d="M97.104 17.3084L97.0369 17.2353C93.7919 13.8139 88.5758 13.5083 86.2829 15.5279C84.8884 16.757 84.2447 18.6106 83.0111 21.3809C82.1731 23.3142 81.2411 25.5266 80.2891 27.8585C79.4242 25.8654 78.5325 23.8192 77.6274 21.6866C75.4552 16.0528 72.7398 11.3425 68.7239 7.74161L69.3474 1.16444C69.4345 0.260906 68.4087 -0.330375 67.6578 0.201114L62.6764 3.7023C61.8048 3.27046 60.9064 2.87185 59.941 2.50645C56.6759 1.11129 53.1896 0.513363 49.7099 0.593087C46.2303 0.513363 42.744 1.11129 39.4789 2.50645C38.5201 2.87185 37.615 3.27711 36.7434 3.7023L31.762 0.201114C31.0111 -0.323731 29.9853 0.260906 30.0725 1.16444L30.696 7.74161C26.68 11.3425 23.9647 16.0461 21.7924 21.6866C20.9678 23.6198 20.1565 25.4801 19.3721 27.3004C18.6614 24.9751 17.9508 22.7628 17.3071 20.8229C16.3216 17.9595 15.8523 16.0528 14.5717 14.7041C12.4665 12.4918 7.2437 12.339 3.70373 15.4615L3.62999 15.5279C1.19626 17.7735 0.036379 21.0023 0.00956108 23.5069C-0.178165 26.7822 2.43659 30.2369 4.50157 33.3395C6.85484 36.7676 9.10755 40.4548 11.6016 43.6968C11.8899 44.0556 12.2184 44.4343 12.5805 44.8196C10.0194 53.4563 9.16789 62.1661 11.6553 73.1081C11.6821 73.2343 11.7089 73.3672 11.729 73.5001C12.5671 78.9146 11.729 85.0068 13.2979 90.129C14.7125 94.5736 18.1787 98.3538 22.8517 99.6095C26.1302 100.573 30.1663 99.8021 31.8492 96.6066C33.9142 93.0389 33.1498 87.7573 36.596 84.9271C39.1906 82.7214 46.646 83.1599 51.205 83.1067C55.5227 83.1067 60.4103 82.9008 62.7971 84.9271C66.2432 87.7573 65.4789 93.0389 67.5439 96.6066C69.2267 99.8021 73.2628 100.579 76.5413 99.6095C81.2143 98.3538 84.6805 94.5736 86.0952 90.129C87.6707 85.0068 86.8193 78.908 87.664 73.5001C87.6841 73.3672 87.711 73.241 87.7378 73.1081C90.252 62.0465 89.3536 53.2703 86.7321 44.5406C89.4608 41.5576 92.0018 38.1295 94.6233 34.9671C96.9632 32.0572 99.8729 28.8484 99.9735 25.5664C100.168 23.0684 99.303 19.7533 97.0771 17.3018L97.104 17.3084Z" fill="#7F56D9"/>
<path d="M61.4227 60.9835C61.4227 54.7518 56.2066 49.696 49.7703 49.696C43.334 49.696 38.1179 54.7518 38.1179 60.9835C38.1179 63.0297 38.6878 64.9431 39.6733 66.5974L49.1199 66.7103L59.7197 66.8365C60.7924 65.1291 61.4227 63.1294 61.4227 60.9835Z" fill="#FDBE69"/>
<path d="M53.0622 63.3619C53.0622 59.8076 48.2953 60.4786 48.2953 58.0736C48.2953 57.1169 48.9657 56.4858 50.0116 56.4858C50.9368 56.4858 51.4531 56.8313 52.09 57.4225L52.8409 56.6187C52.2241 55.9875 51.5134 55.4826 50.4273 55.3763V53.7353H49.4015V55.4029C47.9198 55.6221 46.9276 56.6718 46.9276 58.1467C46.9276 61.3622 51.6945 60.7842 51.6945 63.4616C51.6945 64.4913 51.0508 65.1623 49.7904 65.1623C48.7512 65.1623 47.8863 64.6707 47.1555 64.0728L46.4985 65.0095C47.2226 65.6606 48.3087 66.1722 49.4082 66.2785V66.7169H50.434V66.2519C52.0498 66.026 53.0756 64.9365 53.0756 63.3752L53.0622 63.3619Z" fill="#F29F29"/>
<path d="M66.3438 67.667H33.0627C32.5934 67.667 32.2179 67.2949 32.2179 66.8299C32.2179 66.3648 32.5934 65.9928 33.0627 65.9928H66.3438C66.8131 65.9928 67.1885 66.3648 67.1885 66.8299C67.1885 67.2949 66.8131 67.667 66.3438 67.667Z" fill="#4700AE"/>
<path d="M57.0245 32.4625C54.8456 33.1136 52.5325 33.4125 50.2128 33.4059H50.025C47.7053 33.4059 45.3922 33.1136 43.2133 32.4625C39.9616 31.5324 35.4562 28.2637 37.2932 33.2597C39.0163 37.7109 44.3597 40.5278 49.844 40.7803V40.8069C49.9379 40.8069 50.0317 40.8002 50.1256 40.7936C50.2195 40.7936 50.3133 40.8069 50.4072 40.8069V40.7803C55.8848 40.5278 61.235 37.7109 62.958 33.2597C64.795 28.2704 60.2963 31.5324 57.0379 32.4625H57.0245Z" fill="#4700AE"/>
<path d="M56.8569 36.4088C55.0467 35.6846 50.8899 35.7378 48.4294 35.678C46.6996 35.7511 43.7161 35.4787 42.8512 36.442C42.6166 38.0033 48.0472 39.219 50.4809 39.1393C52.2777 39.1593 54.2556 38.8669 55.7976 38.2424C56.8301 37.8106 58.057 37.0931 56.9038 36.4354L56.8569 36.4088Z" fill="#FF96E1"/>
<path d="M59.5856 26.6294C62.2183 26.6294 64.3525 23.9494 64.3525 20.6435C64.3525 17.3376 62.2183 14.6576 59.5856 14.6576C56.953 14.6576 54.8187 17.3376 54.8187 20.6435C54.8187 23.9494 56.953 26.6294 59.5856 26.6294Z" fill="white"/>
<path d="M58.761 23.6398C60.0755 23.6398 61.1411 22.2983 61.1411 20.6435C61.1411 18.9887 60.0755 17.6472 58.761 17.6472C57.4465 17.6472 56.3809 18.9887 56.3809 20.6435C56.3809 22.2983 57.4465 23.6398 58.761 23.6398Z" fill="#4700AE"/>
<path d="M38.909 26.6294C41.5417 26.6294 43.6759 23.9494 43.6759 20.6435C43.6759 17.3376 41.5417 14.6576 38.909 14.6576C36.2763 14.6576 34.1421 17.3376 34.1421 20.6435C34.1421 23.9494 36.2763 26.6294 38.909 26.6294Z" fill="white"/>
<path d="M40.384 23.6398C41.6985 23.6398 42.7641 22.2983 42.7641 20.6435C42.7641 18.9887 41.6985 17.6472 40.384 17.6472C39.0695 17.6472 38.0039 18.9887 38.0039 20.6435C38.0039 22.2983 39.0695 23.6398 40.384 23.6398Z" fill="#4700AE"/>
</svg>
