<svg width="16" height="16" viewBox="0 0 16 16" fill="none" xmlns="http://www.w3.org/2000/svg">
<path d="M12.8709 0H3.12906C1.40093 0 0 1.51954 0 3.39399V12.606C0 14.4805 1.40093 16 3.12906 16H12.8709C14.5991 16 16 14.4805 16 12.606V3.39399C16 1.51954 14.5991 0 12.8709 0Z" fill="#D6BBFB"/>
<path d="M13.9022 3.51342L13.8938 3.50339C13.487 3.0339 12.8331 2.99197 12.5457 3.2691C12.3709 3.43775 12.2902 3.6921 12.1355 4.07225C12.0305 4.33753 11.9136 4.6411 11.7943 4.96108C11.6859 4.6876 11.5741 4.40682 11.4606 4.11418C11.1883 3.34112 10.8479 2.69478 10.3445 2.20067L10.4227 1.29816C10.4336 1.17418 10.305 1.09304 10.2109 1.16597L9.58638 1.6464C9.47712 1.58715 9.3645 1.53245 9.24347 1.48231C8.83417 1.29087 8.39712 1.20882 7.96092 1.21976C7.52472 1.20882 7.08767 1.29087 6.67836 1.48231C6.55818 1.53245 6.44471 1.58806 6.33545 1.6464L5.71098 1.16597C5.61685 1.09395 5.48826 1.17418 5.49919 1.29816L5.57735 2.20067C5.07391 2.69478 4.73352 3.34021 4.46121 4.11418C4.35783 4.37947 4.25613 4.63472 4.1578 4.88451C4.06871 4.56544 3.97962 4.26187 3.89893 3.99567C3.77538 3.60276 3.71655 3.34112 3.55602 3.15606C3.29212 2.85249 2.63739 2.83152 2.19362 3.25999L2.18438 3.2691C1.87929 3.57723 1.73389 4.02028 1.73052 4.36397C1.70699 4.8134 2.03477 5.28745 2.29364 5.71318C2.58864 6.18358 2.87104 6.68953 3.1837 7.13441C3.21984 7.18364 3.26102 7.2356 3.3064 7.28847C2.98534 8.47359 2.8786 9.66874 3.19042 11.1702C3.19378 11.1875 3.19714 11.2057 3.19966 11.224C3.30472 11.967 3.19966 12.8029 3.39633 13.5058C3.57367 14.1157 4.00819 14.6344 4.594 14.8067C5.00499 14.9389 5.51095 14.8331 5.72191 14.3946C5.98077 13.9051 5.88496 13.1803 6.31696 12.792C6.64222 12.4893 7.57682 12.5495 8.14834 12.5422C8.6896 12.5422 9.30231 12.5139 9.60151 12.792C10.0335 13.1803 9.9377 13.9051 10.1966 14.3946C10.4075 14.8331 10.9135 14.9398 11.3245 14.8067C11.9103 14.6344 12.3448 14.1157 12.5221 13.5058C12.7197 12.8029 12.6129 11.966 12.7188 11.224C12.7213 11.2057 12.7247 11.1884 12.7281 11.1702C13.0432 9.65233 12.9306 8.44807 12.602 7.25019C12.9441 6.84086 13.2626 6.37046 13.5912 5.93653C13.8845 5.53724 14.2493 5.09692 14.2619 4.64657C14.2863 4.3038 14.1779 3.8489 13.8988 3.51251L13.9022 3.51342Z" fill="#7F56D9"/>
<path d="M9.42922 9.50647C9.42922 8.65136 8.77533 7.95761 7.96848 7.95761C7.16163 7.95761 6.50775 8.65136 6.50775 9.50647C6.50775 9.78725 6.57919 10.0498 6.70274 10.2768L7.88696 10.2923L9.21574 10.3096C9.35021 10.0753 9.42922 9.80092 9.42922 9.50647Z" fill="#FDBE69"/>
<path d="M8.38115 9.83283C8.38115 9.34511 7.78358 9.43718 7.78358 9.10717C7.78358 8.9759 7.86763 8.88929 7.99874 8.88929C8.11472 8.88929 8.17944 8.9367 8.25928 9.01783L8.35342 8.90753C8.27609 8.82092 8.18701 8.75164 8.05085 8.73705V8.51188H7.92226V8.7407C7.73651 8.77078 7.61212 8.91482 7.61212 9.1172C7.61212 9.55843 8.2097 9.47912 8.2097 9.84651C8.2097 9.98781 8.12901 10.0799 7.971 10.0799C7.84073 10.0799 7.73231 10.0124 7.6407 9.93038L7.55833 10.0589C7.6491 10.1483 7.78526 10.2184 7.9231 10.233V10.2932H8.05169V10.2294C8.25424 10.1984 8.38283 10.0489 8.38283 9.83465L8.38115 9.83283Z" fill="#F29F29"/>
<path d="M10.0461 10.4236H5.87403C5.8152 10.4236 5.76814 10.3725 5.76814 10.3087C5.76814 10.2449 5.8152 10.1938 5.87403 10.1938H10.0461C10.105 10.1938 10.152 10.2449 10.152 10.3087C10.152 10.3725 10.105 10.4236 10.0461 10.4236Z" fill="#4700AE"/>
<path d="M8.87787 5.59284C8.60472 5.68218 8.31476 5.72321 8.02395 5.7223H8.00042C7.70962 5.7223 7.41966 5.68218 7.1465 5.59284C6.73888 5.46522 6.17408 5.01669 6.40437 5.70224C6.62037 6.31303 7.29022 6.69956 7.97773 6.7342V6.73785C7.98949 6.73785 8.00126 6.73694 8.01303 6.73603C8.02479 6.73603 8.03656 6.73785 8.04833 6.73785V6.7342C8.73499 6.69956 9.40568 6.31303 9.62169 5.70224C9.85197 5.01761 9.28802 5.46522 8.87955 5.59284H8.87787Z" fill="#4700AE"/>
<path d="M8.85686 6.13435C8.62993 6.03498 8.10884 6.04228 7.80039 6.03407C7.58355 6.0441 7.20954 6.00672 7.10112 6.13891C7.0717 6.35314 7.75248 6.51997 8.05757 6.50903C8.28282 6.51177 8.53076 6.47165 8.72406 6.38596C8.8535 6.32671 9.0073 6.22825 8.86274 6.138L8.85686 6.13435Z" fill="#FF96E1"/>
<path d="M9.19893 4.79244C9.52896 4.79244 9.7965 4.42469 9.7965 3.97106C9.7965 3.51742 9.52896 3.14968 9.19893 3.14968C8.8689 3.14968 8.60135 3.51742 8.60135 3.97106C8.60135 4.42469 8.8689 4.79244 9.19893 4.79244Z" fill="white"/>
<path d="M9.09555 4.3822C9.26033 4.3822 9.39392 4.19812 9.39392 3.97106C9.39392 3.74399 9.26033 3.55991 9.09555 3.55991C8.93077 3.55991 8.79718 3.74399 8.79718 3.97106C8.79718 4.19812 8.93077 4.3822 9.09555 4.3822Z" fill="#4700AE"/>
<path d="M6.60692 4.79243C6.93695 4.79243 7.2045 4.42469 7.2045 3.97106C7.2045 3.51742 6.93695 3.14968 6.60692 3.14968C6.27689 3.14968 6.00935 3.51742 6.00935 3.97106C6.00935 4.42469 6.27689 4.79243 6.60692 4.79243Z" fill="white"/>
<path d="M6.79183 4.3822C6.95661 4.3822 7.09019 4.19812 7.09019 3.97106C7.09019 3.74399 6.95661 3.55991 6.79183 3.55991C6.62704 3.55991 6.49346 3.74399 6.49346 3.97106C6.49346 4.19812 6.62704 4.3822 6.79183 4.3822Z" fill="#4700AE"/>
</svg>
